<?xml version="1.0" standalone="no"?>
<!DOCTYPE svg PUBLIC "-//W3C//DTD SVG 20010904//EN"
 "http://www.w3.org/TR/2001/REC-SVG-20010904/DTD/svg10.dtd">
<svg version="1.0" xmlns="http://www.w3.org/2000/svg"
 width="1024.000000pt" height="1024.000000pt" viewBox="0 0 1024.000000 1024.000000"
 preserveAspectRatio="xMidYMid meet">
<metadata>
Created by potrace 1.16, written by Peter Selinger 2001-2019
</metadata>
<g transform="translate(0.000000,1024.000000) scale(0.100000,-0.100000)"
fill="#000000" stroke="none">
<path d="M1546 7615 l-906 -906 113 -126 c61 -70 139 -156 172 -192 33 -36 96
-109 140 -161 44 -52 181 -212 305 -356 124 -143 284 -330 355 -414 201 -236
268 -314 430 -501 83 -95 204 -236 269 -313 65 -78 140 -164 165 -191 25 -28
91 -104 146 -170 55 -65 158 -184 228 -264 71 -80 190 -218 264 -306 75 -88
171 -198 213 -245 42 -47 123 -141 181 -210 57 -69 183 -217 279 -330 96 -113
274 -322 395 -465 121 -142 283 -331 361 -419 77 -89 178 -206 225 -261 183
-218 233 -275 239 -275 7 0 52 52 226 260 71 85 198 236 283 335 204 237 449
521 531 616 36 41 108 127 160 189 52 63 138 164 190 224 53 61 132 154 175
207 87 104 217 256 450 526 83 96 197 229 254 296 57 67 163 190 235 272 73
83 187 215 254 295 67 80 163 192 213 250 344 395 417 479 524 606 66 78 167
193 225 256 58 62 175 197 261 298 86 102 233 272 325 378 l169 193 -795 792
c-437 436 -844 843 -905 905 l-110 113 -2667 -1 -2666 0 -906 -905z m6879
-140 l785 -785 -132 -157 c-73 -87 -207 -243 -298 -348 -91 -104 -255 -296
-365 -425 -109 -129 -233 -273 -275 -320 -42 -47 -156 -180 -253 -296 -96
-116 -215 -256 -264 -310 -48 -54 -120 -137 -158 -184 -39 -46 -149 -175 -245
-285 -96 -111 -254 -295 -350 -410 -242 -288 -397 -471 -569 -670 -81 -93
-179 -208 -217 -255 -39 -47 -207 -245 -374 -440 -166 -195 -366 -431 -443
-523 l-141 -168 -36 43 c-19 24 -102 121 -185 217 -82 96 -219 256 -303 355
-85 100 -214 251 -287 336 -73 85 -242 284 -376 441 -587 687 -885 1034 -1174
1368 -82 96 -181 211 -220 256 -38 46 -131 154 -207 241 -75 88 -209 245 -299
349 -89 105 -190 222 -224 260 -34 39 -225 263 -425 499 l-362 429 783 783
784 784 2522 0 2523 0 785 -785z"/>
<path d="M2126 7278 l-609 -608 75 -88 c41 -48 146 -172 233 -277 160 -193
229 -273 595 -694 112 -130 265 -308 340 -397 125 -149 340 -400 700 -818 80
-93 174 -203 209 -245 69 -83 159 -181 167 -181 2 0 3 647 2 1438 -3 1348 -4
1440 -21 1481 -44 111 -107 151 -252 160 l-90 6 -3 313 -2 314 1062 -5 c1130
-5 1174 -7 1378 -55 191 -46 358 -124 512 -239 251 -190 407 -449 459 -768 18
-110 16 -376 -4 -501 -66 -414 -310 -751 -674 -933 -254 -127 -502 -169 -1007
-173 -160 -1 -317 -3 -349 -6 l-58 -4 3 -376 c3 -322 5 -382 19 -413 41 -90
125 -145 232 -151 l57 -3 0 -292 0 -293 -297 0 c-196 0 -343 5 -428 15 -71 8
-133 15 -138 15 -4 0 28 -40 71 -89 63 -72 408 -476 738 -867 34 -40 64 -78
67 -86 2 -7 6 -11 9 -8 3 3 105 124 228 270 275 326 388 457 739 864 152 175
301 349 331 385 262 316 424 509 535 636 71 83 177 206 235 275 94 112 339
398 527 615 210 243 757 884 915 1073 l87 104 -612 609 -612 609 -2380 -2
-2380 -2 -609 -608z"/>
<path d="M4797 6953 c-4 -3 -7 -289 -7 -634 l0 -627 23 -3 c12 -2 157 -1 322
2 269 5 308 8 380 28 123 34 215 84 278 150 104 109 146 231 154 447 9 231
-30 354 -149 473 -85 84 -171 126 -312 151 -92 17 -155 20 -396 20 -158 0
-290 -3 -293 -7z"/>
</g>
</svg>
